<svg width="61" height="61" viewBox="0 0 61 61" fill="none" xmlns="http://www.w3.org/2000/svg">
<circle cx="30.5" cy="30.5" r="30.5" fill="#00BD82"/>
<path d="M37.3586 24.2163V26.9331C37.3475 27.9489 36.943 28.9207 36.2302 29.6444C35.5173 30.368 34.5516 30.787 33.5361 30.8133H27.4246C26.6098 30.8295 25.8336 31.1638 25.2619 31.7447C24.6902 32.3257 24.3684 33.1071 24.3652 33.9221V39.7478C24.3652 41.4058 25.807 42.3822 27.4246 42.8576C29.4143 43.4799 31.5465 43.4799 33.5361 42.8576C35.0768 42.4115 36.5955 41.5139 36.5955 39.7488V37.4157H30.484V36.6381H39.6549C41.4329 36.6381 42.0961 35.3978 42.7143 33.5365C43.3424 31.5109 43.3424 29.3426 42.7143 27.3169C42.2747 25.5472 41.4356 24.2154 39.6549 24.2154L37.3586 24.2163ZM33.9218 38.9711C34.1533 38.9676 34.3805 39.0332 34.5746 39.1593C34.7688 39.2855 34.9209 39.4666 35.0117 39.6796C35.1026 39.8925 35.1279 40.1277 35.0846 40.3551C35.0413 40.5825 34.9313 40.7919 34.7686 40.9566C34.6058 41.1213 34.3978 41.2338 34.1709 41.2798C33.944 41.3258 33.7085 41.3032 33.4945 41.215C33.2805 41.1267 33.0976 40.9767 32.9691 40.7841C32.8406 40.5915 32.7724 40.365 32.7731 40.1335C32.7719 39.9816 32.8007 39.831 32.8578 39.6903C32.9149 39.5495 32.9992 39.4215 33.106 39.3134C33.2127 39.2053 33.3397 39.1194 33.4797 39.0605C33.6196 39.0016 33.7699 38.9709 33.9218 38.9702V38.9711Z" fill="#FDF9F1"/>
<path d="M30.3483 17.6761C29.3684 17.6773 28.3903 17.761 27.4244 17.9262C24.8349 18.3833 24.365 19.3405 24.365 21.1065V23.4377H30.4838V24.2154H22.0686C21.1679 24.1988 20.2904 24.501 19.5909 25.0687C18.8915 25.6364 18.4152 26.433 18.2462 27.3179C17.6718 29.351 17.6718 31.5034 18.2462 33.5365C18.6813 35.3474 19.72 36.6381 21.498 36.6381H23.602V33.8434C23.6243 32.8386 24.0349 31.8815 24.7475 31.1728C25.4602 30.464 26.4195 30.0588 27.4244 30.042H33.5359C33.941 30.039 34.3415 29.9562 34.7146 29.7983C35.0876 29.6404 35.4259 29.4105 35.7101 29.1218C35.9942 28.833 36.2186 28.4911 36.3705 28.1156C36.5224 27.74 36.5988 27.3382 36.5953 26.9331V21.1065C36.5439 20.3002 36.2083 19.5382 35.6481 18.956C35.088 18.3737 34.3396 18.0088 33.5359 17.9262C32.4822 17.7538 31.4159 17.6702 30.3483 17.6761V17.6761ZM27.0397 19.5521C27.2709 19.5486 27.4979 19.614 27.6918 19.7398C27.8858 19.8657 28.0379 20.0464 28.129 20.2589C28.22 20.4714 28.2458 20.7062 28.2031 20.9334C28.1604 21.1606 28.0511 21.37 27.8891 21.535C27.7271 21.7 27.5197 21.8131 27.2933 21.8599C27.0669 21.9067 26.8317 21.8852 26.6175 21.798C26.4034 21.7109 26.22 21.562 26.0906 21.3704C25.9613 21.1788 25.8918 20.953 25.8911 20.7218C25.8889 20.4145 26.0085 20.1189 26.2238 19.8997C26.4391 19.6805 26.7325 19.5555 27.0397 19.5521V19.5521Z" fill="#FDF9F1"/>
</svg>
