<svg width="25" height="21" viewBox="0 0 25 21" fill="none" xmlns="http://www.w3.org/2000/svg">
<path d="M24 16.875V4.125C24 2.94917 23.0547 2 21.8836 2H2.1164C0.945326 2 0 2.94917 0 4.125V16.875C0 18.0508 0.945326 19 2.1164 19H21.8836C23.0547 19 24 18.0508 24 16.875ZM22.1517 3.96917C22.6173 4.43667 22.3633 4.91833 22.1093 5.15917L16.381 10.4292L21.8836 16.1808C22.0529 16.3792 22.1658 16.6908 21.9683 16.9033C21.7848 17.13 21.3616 17.1158 21.1781 16.9742L15.0123 11.69L11.9929 14.4525L8.98765 11.69L2.82187 16.9742C2.63845 17.1158 2.21517 17.13 2.03175 16.9033C1.83422 16.6908 1.94709 16.3792 2.1164 16.1808L7.61905 10.4292L1.89065 5.15917C1.63668 4.91833 1.38272 4.43667 1.84832 3.96917C2.31393 3.50167 2.79365 3.72833 3.18871 4.06833L11.9929 11.2083L20.8113 4.06833C21.2063 3.72833 21.6861 3.50167 22.1517 3.96917Z" fill="#1E1E1E"/>
</svg>
